HIERARCHY
ROOT Hips
{
	OFFSET -0.066283 88.859909 3.106752
	CHANNELS 6 Xposition Yposition Zposition Zrotation Yrotation Xrotation 
	JOINT Spine
	{
		OFFSET -0.000000 8.814246 -2.080107
		CHANNELS 3 Zrotation Yrotation Xrotation
		JOINT Spine1
		{
			OFFSET -0.000000 8.844141 0.000000
			CHANNELS 3 Zrotation Yrotation Xrotation
			JOINT Spine2
			{
				OFFSET 0.000000 11.682268 0.000000
				CHANNELS 3 Zrotation Yrotation Xrotation
				JOINT Spine3
				{
					OFFSET -0.000000 11.746700 0.000000
					CHANNELS 3 Zrotation Yrotation Xrotation
					JOINT Neck
					{
						OFFSET -0.000000 17.658264 0.000000
						CHANNELS 3 Zrotation Yrotation Xrotation
						JOINT Neck1
						{
							OFFSET 0.000000 5.101515 -0.000000
							CHANNELS 3 Zrotation Yrotation Xrotation
							JOINT Head
							{
								OFFSET -0.000000 5.101515 -0.000000
								CHANNELS 3 Zrotation Yrotation Xrotation
								JOINT HeadEnd
								{
									OFFSET 0.000000 11.655085 -0.000000
									CHANNELS 3 Zrotation Yrotation Xrotation
									End Site
									{
										OFFSET 0.000000 0.000000 0.000000
									}
								}
							}
						}
					}
					JOINT RightShoulder
					{
						OFFSET -2.625389 11.175210 -0.000000
						CHANNELS 3 Zrotation Yrotation Xrotation
						JOINT RightArm
						{
							OFFSET 0.000000 10.434715 -0.000000
							CHANNELS 3 Zrotation Yrotation Xrotation
							JOINT RightForeArm
							{
								OFFSET -0.000000 29.628420 0.000000
								CHANNELS 3 Zrotation Yrotation Xrotation
								JOINT RightHand
								{
									OFFSET -0.000000 22.857611 0.000000
									CHANNELS 3 Zrotation Yrotation Xrotation
									JOINT RightHandThumb1
									{
										OFFSET -2.867323 3.959563 2.944291
										CHANNELS 3 Zrotation Yrotation Xrotation
										JOINT RightHandThumb2
										{
											OFFSET -0.000000 3.350399 0.000000
											CHANNELS 3 Zrotation Yrotation Xrotation
											JOINT RightHandThumb3
											{
												OFFSET -0.000000 3.756509 -0.000000
												CHANNELS 3 Zrotation Yrotation Xrotation
												JOINT RightHandThumb4
												{
													OFFSET -0.000000 3.147345 0.000000
													CHANNELS 3 Zrotation Yrotation Xrotation
													End Site
													{
														OFFSET 0.000000 0.000000 0.000000
													}
												}
											}
										}
									}
									JOINT RightHandIndex1
									{
										OFFSET -0.086752 10.030893 2.345280
										CHANNELS 3 Zrotation Yrotation Xrotation
										JOINT RightHandIndex2
										{
											OFFSET 0.000000 4.061090 -0.000000
											CHANNELS 3 Zrotation Yrotation Xrotation
											JOINT RightHandIndex3
											{
												OFFSET 0.000000 3.248873 -0.000000
												CHANNELS 3 Zrotation Yrotation Xrotation
												JOINT RightHandIndex4
												{
													OFFSET 0.000000 2.639709 0.000000
													CHANNELS 3 Zrotation Yrotation Xrotation
													End Site
													{
														OFFSET 0.000000 0.000000 0.000000
													}
												}
											}
										}
									}
									JOINT RightHandMiddle1
									{
										OFFSET 0.104102 9.502952 0.006768
										CHANNELS 3 Zrotation Yrotation Xrotation
										JOINT RightHandMiddle2
										{
											OFFSET 0.000000 4.568727 0.000000
											CHANNELS 3 Zrotation Yrotation Xrotation
											JOINT RightHandMiddle3
											{
												OFFSET 0.000000 3.654981 -0.000000
												CHANNELS 3 Zrotation Yrotation Xrotation
												JOINT RightHandMiddle4
												{
													OFFSET -0.000000 2.741236 0.000000
													CHANNELS 3 Zrotation Yrotation Xrotation
													End Site
													{
														OFFSET 0.000000 0.000000 0.000000
													}
												}
											}
										}
									}
									JOINT RightHandRing1
									{
										OFFSET 0.086752 8.921708 -2.267442
										CHANNELS 3 Zrotation Yrotation Xrotation
										JOINT RightHandRing2
										{
											OFFSET 0.000000 4.061090 -0.000000
											CHANNELS 3 Zrotation Yrotation Xrotation
											JOINT RightHandRing3
											{
												OFFSET -0.000000 3.654981 0.000000
												CHANNELS 3 Zrotation Yrotation Xrotation
												JOINT RightHandRing4
												{
													OFFSET -0.000000 2.741236 0.000000
													CHANNELS 3 Zrotation Yrotation Xrotation
													End Site
													{
														OFFSET 0.000000 0.000000 0.000000
													}
												}
											}
										}
									}
									JOINT RightHandPinky1
									{
										OFFSET -0.173504 7.976997 -4.467199
										CHANNELS 3 Zrotation Yrotation Xrotation
										JOINT RightHandPinky2
										{
											OFFSET -0.000000 3.350399 0.000000
											CHANNELS 3 Zrotation Yrotation Xrotation
											JOINT RightHandPinky3
											{
												OFFSET 0.000000 2.842763 0.000000
												CHANNELS 3 Zrotation Yrotation Xrotation
												JOINT RightHandPinky4
												{
													OFFSET 0.000000 2.639709 0.000000
													CHANNELS 3 Zrotation Yrotation Xrotation
													End Site
													{
														OFFSET 0.000000 0.000000 0.000000
													}
												}
											}
										}
									}
									JOINT RightForeArmEnd
									{
										OFFSET 0.000000 0.000000 0.000000
										CHANNELS 3 Zrotation Yrotation Xrotation
										End Site
										{
											OFFSET 0.000000 0.000000 0.000000
										}
									}
								}
								JOINT RightArmEnd
								{
									OFFSET 0.000000 0.000000 0.000000
									CHANNELS 3 Zrotation Yrotation Xrotation
									End Site
									{
										OFFSET 0.000000 0.000000 0.000000
									}
								}
							}
						}
					}
					JOINT LeftShoulder
					{
						OFFSET 2.625389 11.175210 0.000000
						CHANNELS 3 Zrotation Yrotation Xrotation
						JOINT LeftArm
						{
							OFFSET -0.000000 10.813635 -0.000000
							CHANNELS 3 Zrotation Yrotation Xrotation
							JOINT LeftForeArm
							{
								OFFSET -0.000000 28.724781 -0.000000
								CHANNELS 3 Zrotation Yrotation Xrotation
								JOINT LeftHand
								{
									OFFSET 0.644384 25.716167 -0.328871
									CHANNELS 3 Zrotation Yrotation Xrotation
									JOINT LeftHandThumb1
									{
										OFFSET 2.867323 3.959563 2.944291
										CHANNELS 3 Zrotation Yrotation Xrotation
										JOINT LeftHandThumb2
										{
											OFFSET 0.000000 3.350399 0.000000
											CHANNELS 3 Zrotation Yrotation Xrotation
											JOINT LeftHandThumb3
											{
												OFFSET -0.000000 3.756509 -0.000000
												CHANNELS 3 Zrotation Yrotation Xrotation
												JOINT LeftHandThumb4
												{
													OFFSET 0.000000 3.100000 0.000000
													CHANNELS 3 Zrotation Yrotation Xrotation
													End Site
													{
														OFFSET 0.000000 0.000000 0.000000
													}
												}
											}
										}
									}
									JOINT LeftHandIndex1
									{
										OFFSET 0.086752 10.030893 2.345280
										CHANNELS 3 Zrotation Yrotation Xrotation
										JOINT LeftHandIndex2
										{
											OFFSET 0.000000 4.061090 0.000000
											CHANNELS 3 Zrotation Yrotation Xrotation
											JOINT LeftHandIndex3
											{
												OFFSET -0.000000 3.248873 -0.000000
												CHANNELS 3 Zrotation Yrotation Xrotation
												JOINT LeftHandIndex4
												{
													OFFSET 0.000000 2.639709 0.000000
													CHANNELS 3 Zrotation Yrotation Xrotation
													End Site
													{
														OFFSET 0.000000 0.000000 0.000000
													}
												}
											}
										}
									}
									JOINT LeftHandMiddle1
									{
										OFFSET -0.104102 9.502952 0.006768
										CHANNELS 3 Zrotation Yrotation Xrotation
										JOINT LeftHandMiddle2
										{
											OFFSET -0.000000 4.568727 -0.000000
											CHANNELS 3 Zrotation Yrotation Xrotation
											JOINT LeftHandMiddle3
											{
												OFFSET -0.000000 3.654981 -0.000000
												CHANNELS 3 Zrotation Yrotation Xrotation
												JOINT LeftHandMiddle4
												{
													OFFSET 0.000000 2.741236 0.000000
													CHANNELS 3 Zrotation Yrotation Xrotation
													End Site
													{
														OFFSET 0.000000 0.000000 0.000000
													}
												}
											}
										}
									}
									JOINT LeftHandRing1
									{
										OFFSET -0.086752 8.921708 -2.267442
										CHANNELS 3 Zrotation Yrotation Xrotation
										JOINT LeftHandRing2
										{
											OFFSET 0.000000 4.061090 0.000000
											CHANNELS 3 Zrotation Yrotation Xrotation
											JOINT LeftHandRing3
											{
												OFFSET 0.000000 3.654981 -0.000000
												CHANNELS 3 Zrotation Yrotation Xrotation
												JOINT LeftHandRing4
												{
													OFFSET -0.000000 2.741236 -0.000000
													CHANNELS 3 Zrotation Yrotation Xrotation
													End Site
													{
														OFFSET 0.000000 0.000000 0.000000
													}
												}
											}
										}
									}
									JOINT LeftHandPinky1
									{
										OFFSET 0.173504 7.976997 -4.467199
										CHANNELS 3 Zrotation Yrotation Xrotation
										JOINT LeftHandPinky2
										{
											OFFSET -0.000000 3.350399 -0.000000
											CHANNELS 3 Zrotation Yrotation Xrotation
											JOINT LeftHandPinky3
											{
												OFFSET 0.000000 2.842763 -0.000000
												CHANNELS 3 Zrotation Yrotation Xrotation
												JOINT LeftHandPinky4
												{
													OFFSET -0.000000 2.639709 -0.000000
													CHANNELS 3 Zrotation Yrotation Xrotation
													End Site
													{
														OFFSET 0.000000 0.000000 0.000000
													}
												}
											}
										}
									}
									JOINT LeftForeArmEnd
									{
										OFFSET 0.000000 0.000000 0.000000
										CHANNELS 3 Zrotation Yrotation Xrotation
										End Site
										{
											OFFSET 0.000000 0.000000 0.000000
										}
									}
								}
								JOINT LeftArmEnd
								{
									OFFSET 0.000000 0.000000 0.000000
									CHANNELS 3 Zrotation Yrotation Xrotation
									End Site
									{
										OFFSET 0.000000 0.000000 0.000000
									}
								}
							}
						}
					}
				}
			}
		}
	}
	JOINT RightUpLeg
	{
		OFFSET -11.289943 -0.000000 0.000000
		CHANNELS 3 Zrotation Yrotation Xrotation
		JOINT RightLeg
		{
			OFFSET 0.000000 -38.200325 -0.000000
			CHANNELS 3 Zrotation Yrotation Xrotation
			JOINT RightFoot
			{
				OFFSET -0.000000 -39.900856 0.000000
				CHANNELS 3 Zrotation Yrotation Xrotation
				JOINT RightToeBase
				{
					OFFSET 0.000000 0.000000 15.261641
					CHANNELS 3 Zrotation Yrotation Xrotation
					JOINT RightToeBaseEnd
					{
						OFFSET 0.000000 0.000000 7.370709
						CHANNELS 3 Zrotation Yrotation Xrotation
						End Site
						{
							OFFSET 0.000000 0.000000 0.000000
						}
					}
				}
				JOINT RightLegEnd
				{
					OFFSET 0.000000 0.000000 0.000000
					CHANNELS 3 Zrotation Yrotation Xrotation
					End Site
					{
						OFFSET 0.000000 0.000000 0.000000
					}
				}
			}
			JOINT RightUpLegEnd
			{
				OFFSET 0.000000 0.000000 0.000000
				CHANNELS 3 Zrotation Yrotation Xrotation
				End Site
				{
					OFFSET 0.000000 0.000000 0.000000
				}
			}
		}
	}
	JOINT LeftUpLeg
	{
		OFFSET 11.315661 0.000000 0.000000
		CHANNELS 3 Zrotation Yrotation Xrotation
		JOINT LeftLeg
		{
			OFFSET 0.000000 -38.200325 -0.000000
			CHANNELS 3 Zrotation Yrotation Xrotation
			JOINT LeftFoot
			{
				OFFSET 0.000000 -39.900856 -0.000000
				CHANNELS 3 Zrotation Yrotation Xrotation
				JOINT LeftToeBase
				{
					OFFSET 0.000000 -0.000000 15.261641
					CHANNELS 3 Zrotation Yrotation Xrotation
					JOINT LeftToeBaseEnd
					{
						OFFSET -0.000000 0.000000 7.539996
						CHANNELS 3 Zrotation Yrotation Xrotation
						End Site
						{
							OFFSET 0.000000 0.000000 0.000000
						}
					}
				}
				JOINT LeftLegEnd
				{
					OFFSET 0.000000 0.000000 0.000000
					CHANNELS 3 Zrotation Yrotation Xrotation
					End Site
					{
						OFFSET 0.000000 0.000000 0.000000
					}
				}
			}
			JOINT LeftUpLegEnd
			{
				OFFSET 0.000000 0.000000 0.000000
				CHANNELS 3 Zrotation Yrotation Xrotation
				End Site
				{
					OFFSET 0.000000 0.000000 0.000000
				}
			}
		}
	}
}
MOTION
Frames: 4
Frame Time: 0.016667
-0.861708 88.206223 1.482342 -1.175609 -0.216843 -11.812471 -0.173037 0.000201 7.227666 0.000646 0.056313 1.435306 1.456970 -0.779122 6.109550 1.612521 -0.290207 5.078810 -0.601311 1.301746 4.808540 0.315265 1.791348 -2.876019 -1.001813 0.174307 -21.065353 0.000000 0.000000 0.000000 88.214279 -0.067738 3.978071 65.451447 5.032383 3.035859 -0.420574 17.495565 83.777771 34.426956 44.433617 12.115475 7.520323 -1.459525 41.436024 -0.000005 0.000012 -17.784903 -0.000007 0.000050 -12.408884 0.000013 -0.000004 0.000005 -0.066703 17.291548 3.458097 1.436934 -0.964163 -0.499867 1.200678 0.024517 -0.452311 -0.000004 0.000025 -0.000014 0.125127 7.144536 -1.896250 1.373369 -1.007952 -0.254251 1.414878 -0.000893 -0.211863 -0.000001 0.000204 0.000009 7.541769 -9.003218 -8.703598 3.250203 1.977285 0.558119 3.285361 -0.023993 0.439249 -0.000012 -0.000096 0.000016 19.045557 -24.765797 -17.725225 5.768415 3.752135 2.572944 5.817352 -0.236611 2.168513 0.000074 0.000007 -0.000038 0.000000 0.000000 0.000000 0.000000 0.000000 0.000000 -90.883415 0.422114 8.883754 -64.139381 13.180222 -0.602871 0.713571 -16.799652 86.289085 -20.348156 -27.752911 6.719636 -10.679377 1.845480 39.827656 0.000019 0.000022 -26.089579 -0.000010 -0.000025 -18.198048 0.001126 0.000011 0.000058 -15.936104 16.968655 -5.039066 -8.874277 -0.869888 1.313058 -8.794851 0.116390 1.194240 -0.000004 -0.001119 0.000008 -14.492333 7.054182 -7.465258 -8.672269 -0.974471 0.511485 -8.496418 0.029272 0.432563 -0.000608 -0.000012 0.000075 -13.876080 -9.069171 -11.654966 -9.632530 1.934687 -0.856169 -9.327716 -0.068611 -0.632049 0.000085 0.000015 0.000002 -8.908644 -26.011278 -17.848413 -9.286710 3.706863 -2.589359 -9.562145 -0.250393 -2.182205 0.000343 0.000003 -0.000044 0.000000 0.000000 0.000000 0.000000 0.000000 0.000000 2.195475 4.943460 10.995654 -0.085501 -0.360476 9.828552 -4.545887 2.786740 16.103039 -0.359794 0.381256 -19.146509 0.000000 0.000000 0.000000 0.000000 0.000000 0.000000 0.000000 0.000000 0.000000 4.129240 13.172838 18.150324 0.094099 0.847204 5.504292 -0.249992 9.488987 14.391384 1.031252 -0.955372 -17.745991 0.000000 0.000000 0.000000 0.000000 0.000000 0.000000 0.000000 0.000000 0.000000 
-0.859799 88.214180 1.498208 -1.193407 -0.254489 -11.827207 -0.179124 -0.003464 7.244288 0.000238 0.052367 1.376933 1.472134 -0.830449 6.116943 1.633130 -0.306903 5.065521 -0.630144 1.331929 4.845739 0.330071 1.825157 -2.837428 -1.017204 0.160111 -21.048790 0.000000 0.000000 0.000000 88.165276 -0.057597 3.945614 65.399315 5.869583 3.124719 -0.386196 17.828176 83.974586 35.905659 45.637470 13.478311 7.580165 -1.463804 41.412296 -0.000005 0.000012 -17.921673 -0.000007 0.000050 -12.502494 0.000012 -0.000004 0.000005 0.252772 17.303782 3.492161 1.617455 -0.950349 -0.534899 1.374536 0.038854 -0.482395 -0.000004 0.000024 -0.000014 0.418726 7.151005 -1.881640 1.571030 -1.002449 -0.268372 1.613729 0.003444 -0.223004 -0.000001 0.000203 0.000009 7.882716 -9.004433 -8.684636 3.460240 1.967685 0.581538 3.490532 -0.030728 0.456122 -0.000012 -0.000106 0.000016 19.442177 -24.726908 -17.708820 5.985626 3.719535 2.649966 6.032249 -0.263551 2.229409 0.000086 0.000007 -0.000038 0.000000 0.000000 0.000000 0.000000 0.000000 0.000000 -90.816605 0.416248 8.899595 -63.873207 12.779235 -0.534597 0.730769 -16.761364 86.790024 -21.308964 -28.653828 7.358946 -10.783771 1.857448 39.779007 0.000019 0.000022 -26.332432 -0.000006 -0.000025 -18.364130 0.001132 0.000011 -0.000003 -16.452932 16.943138 -5.085862 -9.143837 -0.856980 1.351842 -9.058858 0.128684 1.225966 -0.000004 -0.001103 0.000008 -14.975158 7.047551 -7.502542 -8.945726 -0.969162 0.526598 -8.776734 0.033048 0.444651 -0.000630 -0.000012 0.000077 -14.339801 -9.059788 -11.717126 -9.907057 1.925015 -0.879481 -9.606273 -0.074317 -0.647871 0.000046 0.000015 0.000002 -9.332538 -25.982944 -17.933065 -9.521860 3.681755 -2.667668 -9.803103 -0.269433 -2.240534 0.000310 0.000003 -0.000044 0.000000 0.000000 0.000000 0.000000 0.000000 0.000000 2.206953 4.950864 11.062865 -0.085739 -0.363116 9.727031 -4.549799 2.782024 16.137333 -0.367731 0.387573 -19.131233 0.000000 0.000000 0.000000 0.000000 0.000000 0.000000 0.000000 0.000000 0.000000 4.157043 13.179713 18.184484 0.093968 0.845911 5.511331 -0.267520 9.507711 14.361614 1.033677 -0.956781 -17.720037 0.000000 0.000000 0.000000 0.000000 0.000000 0.000000 0.000000 0.000000 0.000000 
-0.859469 88.222359 1.513347 -1.213434 -0.309491 -11.839430 -0.188644 -0.008188 7.258759 0.000825 0.045991 1.325716 1.484916 -0.884292 6.123596 1.657469 -0.326283 5.060213 -0.662773 1.369485 4.869784 0.342544 1.864377 -2.799807 -1.034975 0.147610 -21.022951 0.000000 0.000000 0.000000 88.127914 -0.055815 3.902499 65.306976 6.623225 3.170425 -0.350854 18.143742 84.116455 37.371506 46.690186 14.783807 7.642543 -1.468238 41.387295 -0.000005 0.000012 -18.068647 -0.000008 0.000050 -12.602900 0.000012 -0.000004 0.000005 0.586981 17.316811 3.497626 1.814112 -0.935767 -0.572037 1.566324 0.053807 -0.514310 -0.000003 0.000024 -0.000014 0.726564 7.157915 -1.891519 1.783646 -0.996697 -0.283140 1.828444 0.007950 -0.234534 -0.000002 0.000203 0.000009 8.228607 -9.006856 -8.681298 3.684506 1.957480 0.605238 3.709844 -0.037837 0.473282 -0.000012 -0.000122 0.000016 19.834261 -24.691786 -17.697847 6.211969 3.685288 2.727052 6.256945 -0.291571 2.290684 0.000103 0.000007 -0.000038 0.000000 0.000000 0.000000 0.000000 0.000000 0.000000 -90.748817 0.412945 8.915602 -63.608067 12.389204 -0.484005 0.741979 -16.726208 87.212379 -22.181194 -29.544672 7.948735 -10.875237 1.867955 39.736465 0.000018 0.000023 -26.544138 -0.000003 -0.000025 -18.508747 0.001138 0.000011 -0.000057 -16.903210 16.918106 -5.134590 -9.380727 -0.844565 1.385100 -9.290356 0.140428 1.252852 -0.000003 -0.001092 0.000008 -15.398492 7.041001 -7.543282 -9.186747 -0.963985 0.539726 -9.024799 0.036604 0.455037 -0.000649 -0.000012 0.000079 -14.747580 -9.050827 -11.779777 -10.152720 1.915624 -0.899959 -9.855817 -0.079747 -0.661709 -0.000000 0.000015 0.000001 -9.707019 -25.955393 -18.012043 -9.732421 3.657406 -2.738239 -10.018645 -0.287832 -2.293053 0.000284 0.000003 -0.000044 0.000000 0.000000 0.000000 0.000000 0.000000 0.000000 2.225146 4.961639 11.134575 -0.085808 -0.365493 9.619137 -4.556719 2.779139 16.173578 -0.374109 0.394239 -19.114792 0.000000 0.000000 0.000000 0.000000 0.000000 0.000000 0.000000 0.000000 0.000000 4.192028 13.193216 18.220860 0.093910 0.844971 5.513587 -0.286429 9.525868 14.334396 1.037085 -0.958705 -17.692101 0.000000 0.000000 0.000000 0.000000 0.000000 0.000000 0.000000 0.000000 0.000000 
-0.860963 88.230324 1.527786 -1.234078 -0.382663 -11.850116 -0.201835 -0.013429 7.270977 0.001487 0.038051 1.283192 1.494944 -0.938630 6.129655 1.684556 -0.346900 5.061776 -0.697973 1.414178 4.880258 0.352300 1.908709 -2.764300 -1.054871 0.137299 -20.991665 0.000000 0.000000 0.000000 88.104630 -0.062954 3.847586 65.176834 7.277790 3.167448 -0.314737 18.440971 84.214508 38.800541 47.577721 16.005285 7.706380 -1.472590 41.361614 -0.000005 0.000012 -18.222900 -0.000008 0.000050 -12.708248 0.000012 -0.000004 0.000006 0.930523 17.330288 3.476320 2.020365 -0.919713 -0.613490 1.769629 0.070029 -0.550054 -0.000003 0.000024 -0.000014 1.043357 7.165243 -1.924359 2.004841 -0.990426 -0.299460 2.052507 0.012865 -0.247205 -0.000002 0.000203 0.000008 8.573767 -9.010846 -8.693119 3.917347 1.946248 0.630580 3.937525 -0.045659 0.491778 -0.000012 -0.000144 0.000016 20.212629 -24.662260 -17.691828 6.441556 3.648214 2.807977 6.485674 -0.321753 2.355603 0.000123 0.000007 -0.000039 0.000000 0.000000 0.000000 0.000000 0.000000 0.000000 -90.682968 0.412256 8.927476 -63.355225 12.002459 -0.450764 0.747999 -16.698458 87.564346 -22.960217 -30.423899 8.494920 -10.956349 1.877155 39.698921 0.000018 0.000023 -26.731926 0.000000 -0.000025 -18.636705 0.001146 0.000011 -0.000102 -17.304220 16.894087 -5.185189 -9.595891 -0.831964 1.416422 -9.500358 0.152305 1.278094 -0.000003 -0.001088 0.000008 -15.778187 7.034764 -7.586182 -9.406206 -0.958679 0.552212 -9.251581 0.040169 0.464821 -0.000663 -0.000012 0.000082 -15.115058 -9.042610 -11.839973 -10.380071 1.906111 -0.919318 -10.086556 -0.085210 -0.674861 -0.000051 0.000015 0.000001 -10.049222 -25.929638 -18.078911 -9.927072 3.632717 -2.805722 -10.217636 -0.306490 -2.343456 0.000264 0.000003 -0.000044 0.000000 0.000000 0.000000 0.000000 0.000000 0.000000 2.249942 4.979150 11.206664 -0.085741 -0.367677 9.512547 -4.566807 2.779638 16.208923 -0.378593 0.401036 -19.098005 0.000000 0.000000 0.000000 0.000000 0.000000 0.000000 0.000000 0.000000 0.000000 4.232282 13.214737 18.262157 0.093848 0.844191 5.508137 -0.306662 9.547114 14.311266 1.041468 -0.960709 -17.662477 0.000000 0.000000 0.000000 0.000000 0.000000 0.000000 0.000000 0.000000 0.000000 
